<?xml version="1.0" encoding="utf-8"?>
<!-- Generator: Adobe Illustrator 26.0.3, SVG Export Plug-In . SVG Version: 6.00 Build 0)  -->
<svg version="1.1" id="Layer_1" xmlns="http://www.w3.org/2000/svg" xmlns:xlink="http://www.w3.org/1999/xlink" x="0px" y="0px"
	 viewBox="0 0 143.67 33.8" style="enable-background:new 0 0 143.67 33.8;" xml:space="preserve">
<style type="text/css">
	.st0{fill:#A6192E;}
	.st1{fill:#FFFFFF;}
	.st2{fill:#54585A;}
</style>
<g>
	<path class="st0" d="M67.6,33.8H0V0h67.6V33.8z"/>
	<path class="st1" d="M55.44,16.83c-0.53,0.06-0.93,0.08-1.21,0.08c-0.28,0-0.68-0.04-1.22-0.1c0.08,0.8,0.1,1.1,0.13,1.75v1.06
		v1.08l0.02,5.03c0,2.01,0.06,2.43,0.55,3.23c0.3,0.49,0.72,0.93,1.25,1.29c0.99,0.7,2.07,0.95,4.04,0.95
		c1.84,0,2.98-0.27,3.99-0.99c1.48-1.04,1.8-1.97,1.8-5.39l-0.02-3.32c0-0.28,0.02-0.99,0.04-2.16c0-0.89,0.02-1.52,0.04-1.86
		c0.02-0.15,0.04-0.36,0.06-0.66c-0.49,0.04-0.85,0.08-1.08,0.08c-0.23,0-0.59-0.04-1.06-0.08c0.08,0.74,0.13,1.04,0.15,1.67
		c0.06,0.84,0.08,1.86,0.08,2.98v3.3c0,2.32-0.06,2.83-0.51,3.49c-0.17,0.23-0.46,0.49-0.85,0.72c-0.72,0.45-1.5,0.61-2.56,0.61
		c-1.5,0-2.9-0.55-3.42-1.33c-0.42-0.64-0.44-0.89-0.47-3.09v-4.31c0-0.23,0.02-0.63,0.04-1.16c0-0.53,0.02-0.87,0.02-0.99
		C55.31,17.97,55.33,17.65,55.44,16.83 M49.69,18.88c-0.04-0.44-0.06-0.78-0.06-1.01c0-0.3,0.02-0.53,0.1-1.06
		c-0.82,0.1-1.12,0.1-1.61,0.1h-2.16l-2.49-0.02l-1.44-0.04c0.08,1.67,0.11,2.35,0.15,3.41v1.14v4.65c0,1.52-0.02,2.52-0.04,3
		c-0.04,0.42-0.08,1.1-0.17,1.97c0.49-0.04,0.85-0.06,1.1-0.06c0.3,0,0.74,0.02,1.33,0.09c-0.15-1.84-0.15-2.16-0.15-4.69v-1.8h2.22
		c0.89,0,1.44,0.04,2.77,0.21c-0.04-0.44-0.06-0.78-0.06-1.02c0-0.27,0.02-0.53,0.11-1.08c-1.14,0.17-1.54,0.19-2.52,0.19h-2.49
		v-0.89v-2.47l0.02-0.85h2.26c0.57,0,1.48,0.04,2.24,0.13C48.99,18.79,49.29,18.81,49.69,18.88 M37.73,19.26
		c0.11-0.46,0.15-0.61,0.3-1.06c0.13-0.36,0.17-0.46,0.38-0.84c-0.63-0.23-0.89-0.32-1.37-0.42c-0.68-0.15-1.33-0.23-2.03-0.23
		c-1.5,0-2.51,0.36-3.32,1.16c-0.72,0.72-1.14,1.73-1.14,2.81c0,1.25,0.46,2.16,1.46,2.85c0.51,0.36,0.91,0.57,1.99,1.06
		c1.1,0.51,1.42,0.66,1.9,0.99c0.74,0.5,1.1,1.1,1.1,1.8c0,1.44-1.16,2.41-2.85,2.41c-0.74,0-1.5-0.17-2.2-0.53
		c-0.49-0.23-0.78-0.44-1.46-1.02c-0.17,0.99-0.25,1.29-0.63,2.12c0.99,0.48,1.4,0.61,2.43,0.76c0.53,0.08,0.97,0.13,1.42,0.13
		c1.9,0,3.32-0.61,4.23-1.8c0.61-0.82,0.91-1.67,0.91-2.58c0-0.68-0.17-1.35-0.49-1.84c-0.4-0.64-1.01-1.1-2.43-1.8
		c-1.99-0.99-2.28-1.14-2.75-1.5c-0.53-0.42-0.83-0.99-0.83-1.63c0-1.23,0.87-2.03,2.18-2.03c0.36,0,0.91,0.1,1.35,0.23
		C36.57,18.54,36.93,18.71,37.73,19.26"/>
</g>
<g>
	<path class="st2" d="M79.33,18.62c-0.24-0.97-0.8-1.43-1.47-1.43c-0.67,0-1.06,0.44-1.06,0.98c0,0.61,0.35,0.86,1.42,1.05
		c1.34,0.24,1.96,0.78,1.96,1.88c0,0.64-0.41,1.92-2.3,1.92c-1.04,0-1.7-0.35-2.08-0.66v-1.64h0.43c0.16,1.15,0.76,1.79,1.67,1.79
		c0.83,0,1.27-0.47,1.27-1.11c0-0.54-0.21-0.88-1.14-1.08c-1.37-0.29-2.16-0.55-2.16-1.8c0-0.65,0.39-1.79,2.07-1.79
		c0.92,0,1.56,0.29,1.85,0.52v1.37H79.33z"/>
	<path class="st2" d="M83.04,22.5l0.49,0.03v0.42h-2.21v-0.42l0.51-0.03l0.06-0.08v-5.13l-0.06-0.08l-0.51-0.03v-0.42h2.21v0.42
		l-0.49,0.03l-0.06,0.08v5.13L83.04,22.5z"/>
	<path class="st2" d="M89.93,18.02l-1.41,4.01h-0.93l-1.46-4.07h-0.05v4.46l0.06,0.08l0.51,0.03v0.42h-1.78v-0.42l0.51-0.03
		l0.06-0.08v-5.13l-0.06-0.08l-0.51-0.03v-0.42h2c0.2,0.58,1.21,3.37,1.41,3.96h0.04l1.37-3.96h1.89v0.42l-0.49,0.03l-0.06,0.08
		v5.13l0.06,0.08l0.49,0.03v0.42h-2.19v-0.42l0.52-0.03l0.07-0.08v-4.4H89.93z"/>
	<path class="st2" d="M97.63,19.83c0,1.84-0.5,3.17-2.46,3.17c-1.93,0-2.38-1.33-2.38-3.13c0-1.61,0.55-3.14,2.48-3.14
		C97.13,16.73,97.63,18.1,97.63,19.83z M94,19.88c0,1.32,0.07,2.62,1.24,2.62c1.18,0,1.19-1.25,1.19-2.86
		c0-1.32-0.12-2.45-1.19-2.45C94.13,17.2,94,18.34,94,19.88z"/>
	<path class="st2" d="M103.42,21.34l-0.01-4.05l-0.06-0.08l-0.53-0.03v-0.42h1.78v0.42l-0.49,0.03l-0.07,0.08v5.66h-0.86l-3.09-4.85
		h-0.04v4.33l0.09,0.08l0.47,0.03v0.42h-1.77v-0.42l0.52-0.03l0.06-0.08v-5.13l-0.06-0.08l-0.51-0.03v-0.42h1.62l2.93,4.58H103.42z"
		/>
	<path class="st2" d="M109.92,22.42l0.06,0.08l0.52,0.03v0.42h-2.25v-0.42l0.52-0.03l0.06-0.08V17.3l-0.06-0.08l-0.52-0.03v-0.42
		h4.45v1.44h-0.41c-0.25-0.93-0.39-0.97-1.25-0.97h-1.12v2.43h0.68c0.74,0,0.79-0.09,0.94-0.82h0.39v2.13h-0.39
		c-0.15-0.73-0.23-0.83-0.93-0.83h-0.69L109.92,22.42z"/>
	<path class="st2" d="M116.51,16.76c1.51,0,2.07,0.72,2.07,1.69c0,0.76-0.4,1.42-1.23,1.63l1.29,2.23c0.08,0.13,0.12,0.16,0.28,0.19
		l0.37,0.07v0.36h-1.54c-0.2-0.45-1.22-2.28-1.43-2.73h-0.67v2.21l0.06,0.08l0.48,0.03v0.42h-2.21v-0.42l0.51-0.03l0.07-0.08v-5.13
		l-0.07-0.08l-0.51-0.03v-0.42H116.51z M116.36,17.23h-0.72v2.51h0.68c0.59,0,1.06-0.45,1.06-1.29
		C117.38,17.61,116.95,17.23,116.36,17.23z"/>
	<path class="st2" d="M123.69,16.77l1.92,5.65l0.07,0.08l0.41,0.03v0.42h-2.2v-0.42l0.56-0.03l0.05-0.06l-0.36-1.09h-2.26
		l-0.36,1.07l0.05,0.08l0.57,0.03v0.42h-1.8v-0.42l0.43-0.03l0.06-0.08l1.95-5.65H123.69z M122.05,20.87h1.94l-0.95-2.86H123
		L122.05,20.87z"/>
	<path class="st2" d="M130.85,18.62c-0.24-0.97-0.8-1.43-1.47-1.43s-1.06,0.44-1.06,0.98c0,0.61,0.35,0.86,1.42,1.05
		c1.34,0.24,1.96,0.78,1.96,1.88c0,0.64-0.41,1.92-2.31,1.92c-1.04,0-1.7-0.35-2.08-0.66v-1.64h0.43c0.16,1.15,0.76,1.79,1.67,1.79
		c0.82,0,1.27-0.47,1.27-1.11c0-0.54-0.21-0.88-1.14-1.08c-1.37-0.29-2.16-0.55-2.16-1.8c0-0.65,0.39-1.79,2.07-1.79
		c0.92,0,1.56,0.29,1.85,0.52v1.37H130.85z"/>
	<path class="st2" d="M136.14,20.81c-0.14-0.73-0.22-0.82-0.91-0.82h-0.71v2.48h1.12c0.87,0,1.15-0.01,1.33-1.2h0.42v1.68h-4.54
		v-0.42l0.52-0.03l0.06-0.08V17.3l-0.06-0.08l-0.52-0.03v-0.42h4.45v1.44h-0.41c-0.25-0.93-0.39-0.97-1.25-0.97h-1.12v2.26h0.7
		c0.74,0,0.78-0.11,0.92-0.83h0.39v2.13H136.14z"/>
	<path class="st2" d="M141.22,16.76c1.51,0,2.07,0.72,2.07,1.69c0,0.76-0.4,1.42-1.23,1.63l1.29,2.23c0.08,0.13,0.12,0.16,0.28,0.19
		l0.37,0.07v0.36h-1.54c-0.2-0.45-1.22-2.28-1.43-2.73h-0.67v2.21l0.06,0.08l0.48,0.03v0.42h-2.21v-0.42l0.51-0.03l0.07-0.08v-5.13
		l-0.07-0.08l-0.51-0.03v-0.42H141.22z M141.06,17.23h-0.72v2.51h0.68c0.59,0,1.06-0.45,1.06-1.29
		C142.09,17.61,141.66,17.23,141.06,17.23z"/>
	<path class="st2" d="M80.03,28l-0.51-0.03v-0.42h1.73v0.42L80.78,28l-0.07,0.08v3.43c0,1.53-0.74,2.3-2.23,2.3
		c-1.86,0-2.31-1.06-2.31-2.26v-3.47L76.12,28l-0.51-0.03v-0.42h2.2v0.42L77.31,28c0,0.02-0.04,0.07-0.05,0.08v3.51
		c0,0.88,0.24,1.66,1.43,1.66c1.34,0,1.42-0.96,1.42-1.73v-3.43L80.03,28z"/>
	<path class="st2" d="M87.1,32.14l-0.01-4.05L87.03,28l-0.53-0.03v-0.42h1.78v0.42L87.79,28l-0.07,0.08v5.66h-0.86l-3.1-4.85h-0.03
		v4.33l0.09,0.08l0.47,0.03v0.42h-1.77v-0.42l0.52-0.03l0.06-0.08v-5.13L83.04,28l-0.51-0.03v-0.42h1.62l2.94,4.58H87.1z"/>
	<path class="st2" d="M91.33,33.3l0.49,0.03v0.42h-2.21v-0.42l0.51-0.03l0.06-0.08v-5.13L90.13,28l-0.51-0.03v-0.42h2.21v0.42
		L91.33,28l-0.06,0.08v5.13L91.33,33.3z"/>
	<path class="st2" d="M95.3,33.74l-1.8-5.65l-0.06-0.08l-0.42-0.03v-0.42h2.21v0.42l-0.55,0.03l-0.06,0.08l1.37,4.44h0.04
		c0.2-0.68,1.17-3.76,1.38-4.44l-0.05-0.08l-0.57-0.03v-0.42h1.78v0.42l-0.43,0.03l-0.06,0.08l-1.82,5.65H95.3z"/>
	<path class="st2" d="M103.07,31.6c-0.14-0.73-0.22-0.82-0.91-0.82h-0.71v2.48h1.12c0.87,0,1.15-0.01,1.33-1.2h0.42v1.68h-4.54
		v-0.42l0.52-0.03l0.06-0.08v-5.13l-0.06-0.08l-0.52-0.03v-0.42h4.45v1.45h-0.41c-0.25-0.93-0.39-0.97-1.25-0.97h-1.12v2.26h0.7
		c0.74,0,0.78-0.11,0.92-0.83h0.39v2.13H103.07z"/>
	<path class="st2" d="M108.15,27.56c1.51,0,2.07,0.72,2.07,1.69c0,0.76-0.4,1.42-1.23,1.63l1.29,2.23c0.08,0.13,0.12,0.16,0.28,0.19
		l0.37,0.07v0.36h-1.54c-0.2-0.45-1.22-2.28-1.43-2.73h-0.67v2.21l0.06,0.08l0.48,0.03v0.42h-2.21v-0.42l0.51-0.03l0.07-0.08v-5.13
		L106.14,28l-0.51-0.03v-0.42H108.15z M108,28.03h-0.72v2.51h0.68c0.59,0,1.06-0.45,1.06-1.29C109.03,28.4,108.6,28.03,108,28.03z"
		/>
	<path class="st2" d="M115.65,29.41c-0.24-0.97-0.8-1.43-1.47-1.43c-0.67,0-1.06,0.44-1.06,0.98c0,0.61,0.35,0.86,1.42,1.05
		c1.34,0.24,1.96,0.78,1.96,1.88c0,0.64-0.41,1.92-2.3,1.92c-1.04,0-1.7-0.35-2.08-0.66v-1.64h0.43c0.16,1.15,0.76,1.79,1.67,1.79
		c0.83,0,1.27-0.47,1.27-1.11c0-0.54-0.21-0.88-1.14-1.08c-1.37-0.29-2.16-0.55-2.16-1.8c0-0.65,0.39-1.79,2.07-1.79
		c0.92,0,1.56,0.29,1.85,0.52v1.37H115.65z"/>
	<path class="st2" d="M119.36,33.3l0.49,0.03v0.42h-2.21v-0.42l0.51-0.03l0.06-0.08v-5.13L118.15,28l-0.51-0.03v-0.42h2.21v0.42
		L119.36,28l-0.06,0.08v5.13L119.36,33.3z"/>
	<path class="st2" d="M121.46,29.06h-0.41v-1.49h4.85v1.49h-0.41c-0.2-0.96-0.37-1.01-1.23-1.01h-0.25v5.17l0.06,0.08l0.49,0.03
		v0.42h-2.22v-0.42l0.52-0.03l0.06-0.08v-5.17h-0.24C121.83,28.05,121.67,28.13,121.46,29.06z"/>
	<path class="st2" d="M130.07,31.23v1.99l0.06,0.08l0.49,0.03v0.42h-2.22v-0.42l0.52-0.03l0.06-0.08v-1.91l-1.52-3.23L127.4,28
		l-0.43-0.03v-0.42h2.23v0.42L128.66,28l-0.06,0.07l1.14,2.46h0.04l1.14-2.46L130.87,28l-0.57-0.03v-0.42h1.78v0.42L131.66,28
		l-0.06,0.08L130.07,31.23z"/>
</g>
</svg>
